<?xml version="1.0" standalone="no"?>
<!DOCTYPE svg PUBLIC "-//W3C//DTD SVG 20010904//EN"
 "http://www.w3.org/TR/2001/REC-SVG-20010904/DTD/svg10.dtd">
<svg version="1.0" xmlns="http://www.w3.org/2000/svg"
 width="1512.000000pt" height="1512.000000pt" viewBox="0 0 1512.000000 1512.000000"
 preserveAspectRatio="xMidYMid meet">
<metadata>
Created by potrace 1.14, written by Peter Selinger 2001-2017
</metadata>
<g transform="translate(0.000000,1512.000000) scale(0.100000,-0.100000)"
fill="#000000" stroke="none">
<path d="M3715 9944 c-16 -2 -73 -9 -125 -15 -120 -14 -336 -68 -454 -115
-493 -195 -807 -579 -903 -1104 -13 -72 -17 -149 -17 -320 0 -195 3 -239 22
-327 85 -393 293 -686 587 -828 127 -62 199 -79 330 -79 139 -1 222 23 329 94
198 133 287 368 226 604 -52 205 -204 356 -397 397 -118 24 -301 -5 -408 -64
l-45 -25 -10 36 c-18 59 -24 249 -11 358 18 153 47 259 101 370 105 217 258
357 478 440 376 141 839 94 1113 -114 322 -244 479 -725 440 -1345 -29 -453
-144 -825 -354 -1145 -263 -402 -692 -714 -1225 -892 -348 -116 -663 -175
-994 -187 l-188 -6 0 -255 0 -255 138 7 c1042 52 1943 422 2542 1042 358 371
591 862 674 1419 39 261 44 598 11 844 -113 856 -649 1381 -1491 1461 -102 9
-301 11 -369 4z"/>
<path d="M7031 9918 c5 -18 337 -1093 737 -2388 l728 -2355 243 -3 c193 -2
242 0 239 10 -3 7 -335 1083 -739 2391 l-734 2377 -242 0 -241 0 9 -32z"/>
<path d="M9272 8854 l3 -257 1454 -518 c799 -285 1455 -519 1456 -521 2 -2
-652 -235 -1453 -519 l-1457 -516 -3 -257 c-1 -166 1 -256 8 -256 5 0 822 295
1816 655 993 360 1808 655 1810 655 2 0 4 108 4 240 0 132 -2 240 -4 240 -2 0
-817 295 -1810 655 -993 360 -1811 655 -1816 655 -7 0 -9 -89 -8 -256z"/>
<path d="M6210 9044 c-305 -82 -397 -464 -164 -684 30 -28 80 -63 111 -78 51
-24 70 -27 163 -27 97 0 110 2 172 32 88 41 160 113 201 201 30 62 32 75 32
172 0 96 -3 110 -29 165 -88 179 -292 271 -486 219z"/>
<path d="M6224 7441 c-105 -27 -225 -127 -270 -225 -95 -207 -8 -449 195 -549
62 -30 73 -32 171 -32 99 0 109 2 173 33 87 43 161 117 201 201 29 61 31 74
31 171 0 99 -2 110 -32 171 -40 81 -130 170 -209 206 -44 20 -76 26 -143 29
-47 2 -100 0 -117 -5z"/>
</g>
</svg>
